<?xml version="1.0" encoding="utf-8"?>
<!-- Generator: Adobe Illustrator 16.0.4, SVG Export Plug-In . SVG Version: 6.00 Build 0)  -->
<!DOCTYPE svg PUBLIC "-//W3C//DTD SVG 1.1//EN" "http://www.w3.org/Graphics/SVG/1.1/DTD/svg11.dtd">
<svg version="1.1" id="Layer_1" xmlns="http://www.w3.org/2000/svg" xmlns:xlink="http://www.w3.org/1999/xlink" x="0px" y="0px"
	 width="100px" height="100px" viewBox="-4.84 0 100 100" enable-background="new -4.84 0 100 100" xml:space="preserve">
<path fill="#FFFFFF" d="M71.112,76.752V71.35H59.147v-3.089h20.312c0.728,0,1.319-0.598,1.319-1.333V11.335
	c0-0.737-0.592-1.335-1.32-1.335h-68.85c-0.729,0-1.32,0.598-1.32,1.335v55.593c0,0.735,0.592,1.333,1.32,1.333h20.554v3.089H19.208
	v5.402L9.032,84.081V90h72.256v-5.919L71.112,76.752z M14.12,62.999V14.833c0-0.636,0.51-1.152,1.134-1.152h59.302
	c0.625,0,1.134,0.517,1.134,1.152v48.166c0,0.637-0.509,1.151-1.134,1.151H15.254C14.629,64.15,14.12,63.636,14.12,62.999z
	 M12.587,83.822l9.167-6.562h46.814l9.153,6.562H12.587z"/>
</svg>
