<?xml version="1.0" encoding="utf-8"?>
<!-- Generator: Adobe Illustrator 16.0.4, SVG Export Plug-In . SVG Version: 6.00 Build 0)  -->
<!DOCTYPE svg PUBLIC "-//W3C//DTD SVG 1.1//EN" "http://www.w3.org/Graphics/SVG/1.1/DTD/svg11.dtd">
<svg version="1.1" id="Calque_1" xmlns="http://www.w3.org/2000/svg" xmlns:xlink="http://www.w3.org/1999/xlink" x="0px" y="0px"
	 width="97.341px" height="72.609px" viewBox="2.036 13.514 97.341 72.609" enable-background="new 2.036 13.514 97.341 72.609"
	 xml:space="preserve">
<g>
	<path fill="#FFFFFF" d="M74.05,67.585c-1.303,1.304-3.413,1.306-4.716,0l-5.057-5.058c-1.303-1.299-1.303-3.413,0-4.713l0,0
		c1.303-1.303,3.412-1.303,4.715-0.002l5.057,5.058C75.352,64.173,75.352,66.284,74.05,67.585L74.05,67.585z"/>
	<path fill="#FFFFFF" d="M68.166,73.47c-1.303,1.304-3.559,1.158-5.037-0.321l-7.145-7.146c-1.479-1.479-1.625-3.734-0.321-5.036
		l0,0c1.301-1.302,3.558-1.157,5.035,0.323l7.147,7.141C69.326,69.91,69.469,72.167,68.166,73.47L68.166,73.47z"/>
	<path fill="#FFFFFF" d="M62.283,79.354c-1.301,1.303-3.559,1.157-5.038-0.322l-6.113-6.116c-1.48-1.479-1.624-3.735-0.321-5.038
		l0,0c1.301-1.301,3.556-1.157,5.037,0.321l6.115,6.114C63.439,75.793,63.584,78.05,62.283,79.354L62.283,79.354z"/>
	<path fill="#FFFFFF" d="M49.395,74.066l-0.167,0.17c0.083-0.021,0.164-0.051,0.248-0.064
		C49.445,74.141,49.423,74.102,49.395,74.066z"/>
	<path fill="#FFFFFF" d="M56.402,85.232c-1.303,1.304-3.559,1.158-5.039-0.321l-2.817-2.817c-1.48-1.479-1.623-3.734-0.322-5.037
		l0,0c1.305-1.304,3.558-1.16,5.038,0.32l2.817,2.816C57.561,81.676,57.706,83.93,56.402,85.232L56.402,85.232z"/>
	<path fill="#FFFFFF" d="M63.066,28.185l-10.105,0.004c-0.122,0-0.236,0.021-0.357,0.031H39.427c-1.721,0-4.118,1.003-5.326,2.23
		l-15.79,16.035c-1.208,1.226-1.2,3.225,0.016,4.442l7.306,7.306c1.216,1.217,3.208,1.217,4.424,0l21.507-21.507
		c0.787-0.788,2.072-1.478,3.348-1.871l8.154,0.002c2.093,0.001,3.789-1.492,3.789-3.334C66.855,29.68,65.159,28.185,63.066,28.185z
		"/>
	<path fill="#FFFFFF" d="M34.254,23.347l-5.874-8.92c-1.218-1.218-3.209-1.218-4.428,0L2.949,35.024
		c-1.218,1.217-1.218,3.208,0,4.425l9.327,5.875c1.218,1.217,3.209,1.217,4.427,0l17.551-17.551
		C35.473,26.556,35.473,24.564,34.254,23.347z"/>
	<path fill="#FFFFFF" d="M67.157,28.693l17.552,17.551c1.218,1.217,3.209,1.217,4.428,0l9.327-5.875
		c1.218-1.218,1.218-3.208,0-4.426L77.459,15.347c-1.219-1.217-3.209-1.217-4.428,0l-5.874,8.92
		C65.939,25.484,65.939,27.476,67.157,28.693z"/>
	<path fill="#FFFFFF" d="M83.049,46.532L68.852,32.336c-0.194,1.178-0.785,2.283-1.727,3.11c-1.096,0.965-2.537,1.497-4.057,1.497
		l-7.823-0.002c-0.896,0.314-1.739,0.793-2.205,1.259L31.532,59.708c-0.794,0.794-1.808,1.282-2.902,1.448l-0.323,0.318
		c-1.303,1.303-1.303,3.412,0,4.715c1.301,1.304,3.414,1.306,4.715,0L45.4,53.843c0.169-0.169,0.403-0.274,0.662-0.274
		c0.519,0,0.938,0.418,0.938,0.937c0,0.259-0.104,0.494-0.275,0.665l0.007,0.007l-14.61,14.612c-1.48,1.48-1.624,3.732-0.322,5.038
		c1.301,1.301,3.558,1.157,5.037-0.323L51.464,59.91c0.171-0.171,0.404-0.277,0.663-0.277c0.52,0,0.938,0.422,0.938,0.938
		c0,0.26-0.105,0.494-0.276,0.664l0.004,0.002L38.479,75.55c-1.479,1.48-1.622,3.735-0.321,5.038
		c1.303,1.303,3.558,1.159,5.038-0.32l2.225-2.226c0.212-0.911,0.638-1.769,1.33-2.461c0.681-0.681,1.54-1.129,2.478-1.345
		l0.167-0.17c-0.904-1.022-1.464-2.28-1.549-3.604c-0.099-1.537,0.445-3.019,1.489-4.062c0.956-0.955,2.25-1.482,3.646-1.495
		c-0.174-0.56-0.295-1.134-0.295-1.716c0-1.42,0.533-2.732,1.504-3.701c0.966-0.965,2.279-1.498,3.697-1.498
		c1.209,0,2.411,0.402,3.432,1.117c0.205-1.043,0.717-2.002,1.484-2.77c1.022-1.021,2.383-1.587,3.832-1.587
		c1.447,0,2.809,0.563,3.832,1.589l4.165,4.164l8.416-8.574C84.533,50.446,84.533,48.017,83.049,46.532z"/>
</g>
<g>
	<path d="M17.58,38.212l-1.127,1.127l-2.656-2.656L12.31,38.17l2.656,2.656l-1.127,1.127l-6.057-6.057l1.127-1.127l2.407,2.407
		l1.487-1.487l-2.407-2.407l1.127-1.127L17.58,38.212z"/>
	<path d="M20.509,35.283l-1.123,1.123l-5.067-5.067l-1.16,1.16l-0.99-0.99l3.443-3.443l0.99,0.99l-1.16,1.16L20.509,35.283z"/>
	<path d="M24.478,31.313l-6.31-4.006l-0.045,0.045c0.45,0.345,0.841,0.684,1.172,1.015l4.064,4.064l-1.044,1.044l-6.057-6.057
		l1.731-1.732l5.796,3.725l0.033-0.033l-3.733-5.788l1.757-1.757l6.057,6.057l-1.069,1.069l-4.106-4.105
		c-0.34-0.34-0.668-0.708-0.986-1.103l-0.033,0.033l4.002,6.298L24.478,31.313z"/>
	<path d="M28.969,26.822l-6.057-6.057l1.127-1.127l5.071,5.071l1.562-1.562l0.986,0.986L28.969,26.822z"/>
</g>
<g>
	<path d="M81.499,26.805c-0.323-0.323-0.767-0.389-1.332-0.197c-0.564,0.192-1.184,0.625-1.858,1.299
		c-1.402,1.403-1.738,2.471-1.006,3.203c0.32,0.32,0.758,0.554,1.312,0.7l-1.002,1.003c-0.492-0.1-0.969-0.38-1.43-0.841
		c-0.683-0.682-0.935-1.478-0.758-2.386s0.756-1.855,1.74-2.838c0.982-0.983,1.938-1.561,2.864-1.734
		c0.927-0.172,1.726,0.077,2.397,0.748c0.221,0.221,0.402,0.463,0.545,0.727c0.142,0.264,0.253,0.587,0.333,0.972l-1.288,0.542
		c-0.039-0.21-0.094-0.42-0.164-0.632C81.783,27.16,81.665,26.971,81.499,26.805z"/>
	<path d="M82.688,34.972c-0.566,0.566-1.143,0.857-1.729,0.872s-1.15-0.247-1.688-0.785c-0.528-0.528-0.873-1.08-1.036-1.657
		l1.114-1.115c0.158,0.749,0.426,1.312,0.804,1.69c0.216,0.215,0.438,0.318,0.665,0.309c0.229-0.01,0.444-0.117,0.648-0.321
		c0.202-0.202,0.321-0.451,0.358-0.748s0.01-0.697-0.085-1.199c-0.08-0.439-0.104-0.808-0.074-1.106s0.111-0.586,0.242-0.864
		c0.132-0.278,0.332-0.552,0.603-0.822c0.52-0.52,1.075-0.787,1.668-0.802c0.593-0.016,1.132,0.22,1.618,0.706
		c0.464,0.464,0.78,1.04,0.948,1.728l-1.275,0.53c-0.056-0.21-0.125-0.418-0.209-0.624c-0.085-0.206-0.21-0.392-0.375-0.558
		c-0.183-0.182-0.383-0.262-0.602-0.24c-0.218,0.022-0.431,0.137-0.638,0.344c-0.204,0.204-0.324,0.441-0.358,0.71
		s-0.002,0.647,0.098,1.133c0.13,0.66,0.135,1.206,0.014,1.639C83.279,34.225,83.042,34.618,82.688,34.972z"/>
	<path d="M86.193,38.477c-0.566,0.566-1.143,0.857-1.729,0.872s-1.149-0.247-1.688-0.785c-0.527-0.527-0.873-1.08-1.036-1.657
		l1.115-1.114c0.157,0.749,0.425,1.312,0.804,1.69c0.215,0.215,0.437,0.318,0.665,0.309c0.228-0.01,0.443-0.117,0.648-0.321
		c0.201-0.202,0.32-0.451,0.358-0.748c0.037-0.297,0.009-0.697-0.085-1.2c-0.08-0.439-0.105-0.808-0.075-1.106
		c0.03-0.298,0.111-0.586,0.242-0.864c0.132-0.277,0.333-0.552,0.604-0.822c0.52-0.519,1.075-0.787,1.667-0.802
		c0.593-0.015,1.132,0.22,1.618,0.707c0.464,0.464,0.78,1.04,0.949,1.728l-1.276,0.53c-0.056-0.209-0.125-0.417-0.209-0.624
		c-0.085-0.206-0.21-0.392-0.375-0.557c-0.183-0.182-0.383-0.262-0.601-0.24c-0.219,0.022-0.432,0.137-0.639,0.344
		c-0.204,0.205-0.323,0.441-0.358,0.71c-0.034,0.27-0.002,0.647,0.098,1.133c0.13,0.66,0.135,1.207,0.015,1.639
		S86.547,38.123,86.193,38.477z"/>
</g>
</svg>
