<?xml version="1.0" encoding="utf-8"?>
<!-- Generator: Adobe Illustrator 16.0.4, SVG Export Plug-In . SVG Version: 6.00 Build 0)  -->
<!DOCTYPE svg PUBLIC "-//W3C//DTD SVG 1.1//EN" "http://www.w3.org/Graphics/SVG/1.1/DTD/svg11.dtd">
<svg version="1.1"
	 id="svg2" inkscape:version="0.48.2 r9819" sodipodi:docname="server np.svg" xmlns:svg="http://www.w3.org/2000/svg" xmlns:sodipodi="http://sodipodi.sourceforge.net/DTD/sodipodi-0.dtd" xmlns:inkscape="http://www.inkscape.org/namespaces/inkscape" xmlns:rdf="http://www.w3.org/1999/02/22-rdf-syntax-ns#" xmlns:dc="http://purl.org/dc/elements/1.1/" xmlns:cc="http://creativecommons.org/ns#"
	 xmlns="http://www.w3.org/2000/svg" xmlns:xlink="http://www.w3.org/1999/xlink" x="0px" y="0px" width="100px" height="100px"
	 viewBox="-2.5 0 100 100" enable-background="new -2.5 0 100 100" xml:space="preserve">
<sodipodi:namedview  inkscape:pageshadow="2" inkscape:window-height="853" inkscape:current-layer="svg2" inkscape:snap-grids="false" inkscape:window-maximized="1" inkscape:window-x="-4" inkscape:window-y="-4" inkscape:pageopacity="0" inkscape:window-width="1600" objecttolerance="10" pagecolor="#ffffff" inkscape:cy="54.325921" showgrid="true" inkscape:zoom="7.3114841" bordercolor="#666666" inkscape:cx="104.08241" guidetolerance="10" borderopacity="1" gridtolerance="10" id="namedview6">
	<inkscape:grid  type="xygrid" id="grid3807"></inkscape:grid>
</sodipodi:namedview>
<path id="path5203" fill="#FFFFFF" d="M50,10L20.75,29.5h24.094L72.156,10H50z M73.844,10L45.5,30.25v59.344L75,65V10H73.844z
	 M71.375,17.188c0.117,0.03,0.188,0.133,0.188,0.312c0,0.358-0.299,0.86-0.656,1.125s-0.656,0.202-0.656-0.156
	s0.299-0.86,0.656-1.125C71.086,17.211,71.258,17.157,71.375,17.188z M69.438,18.625c0.117,0.03,0.188,0.133,0.188,0.312
	c0,0.358-0.299,0.86-0.656,1.125s-0.656,0.202-0.656-0.156s0.299-0.86,0.656-1.125C69.148,18.648,69.32,18.595,69.438,18.625z
	 M71.375,19.125c0.117,0.03,0.188,0.133,0.188,0.312c0,0.358-0.299,0.891-0.656,1.156s-0.656,0.17-0.656-0.188
	s0.299-0.86,0.656-1.125C71.086,19.148,71.258,19.095,71.375,19.125z M67.469,20.062c0.117,0.03,0.188,0.133,0.188,0.312
	c0,0.358-0.268,0.891-0.625,1.156s-0.656,0.17-0.656-0.188s0.299-0.86,0.656-1.125C67.211,20.086,67.352,20.032,67.469,20.062z
	 M69.438,20.562c0.117,0.03,0.188,0.165,0.188,0.344c0,0.358-0.299,0.86-0.656,1.125s-0.656,0.17-0.656-0.188
	s0.299-0.86,0.656-1.125C69.148,20.586,69.32,20.532,69.438,20.562z M71.312,21.062c0.146,0.015,0.25,0.143,0.25,0.344
	c0,0.358-0.299,0.86-0.656,1.125s-0.656,0.17-0.656-0.188s0.299-0.86,0.656-1.125c0.09-0.066,0.172-0.101,0.25-0.125
	C71.215,21.075,71.264,21.058,71.312,21.062z M65.531,21.5c0.117,0.03,0.188,0.133,0.188,0.312c0,0.358-0.299,0.891-0.656,1.156
	s-0.625,0.17-0.625-0.188s0.268-0.86,0.625-1.125C65.242,21.523,65.414,21.47,65.531,21.5z M67.469,22
	c0.117,0.03,0.188,0.165,0.188,0.344c0,0.358-0.268,0.86-0.625,1.125s-0.656,0.17-0.656-0.188s0.299-0.86,0.656-1.125
	C67.211,22.023,67.352,21.97,67.469,22z M69.375,22.5c0.146,0.015,0.25,0.143,0.25,0.344c0,0.358-0.299,0.86-0.656,1.125
	s-0.656,0.202-0.656-0.156s0.299-0.891,0.656-1.156c0.09-0.066,0.172-0.101,0.25-0.125C69.277,22.513,69.326,22.495,69.375,22.5z
	 M63.594,22.938c0.117,0.03,0.188,0.165,0.188,0.344c0,0.358-0.299,0.86-0.656,1.125s-0.656,0.17-0.656-0.188
	s0.299-0.86,0.656-1.125C63.305,22.961,63.477,22.907,63.594,22.938z M71.312,23c0.146,0.015,0.25,0.143,0.25,0.344
	c0,0.358-0.299,0.86-0.656,1.125s-0.656,0.202-0.656-0.156s0.299-0.86,0.656-1.125c0.09-0.066,0.172-0.132,0.25-0.156
	C71.215,23.013,71.264,22.995,71.312,23z M65.5,23.438c0.139,0.015,0.219,0.143,0.219,0.344c0,0.358-0.299,0.86-0.656,1.125
	s-0.625,0.17-0.625-0.188s0.268-0.86,0.625-1.125c0.09-0.066,0.203-0.101,0.281-0.125C65.402,23.45,65.454,23.433,65.5,23.438z
	 M67.438,23.938c0.139,0.015,0.219,0.143,0.219,0.344c0,0.358-0.268,0.86-0.625,1.125s-0.656,0.202-0.656-0.156
	s0.299-0.891,0.656-1.156c0.09-0.066,0.172-0.101,0.25-0.125C67.34,23.95,67.392,23.933,67.438,23.938z M61.656,24.375
	c0.117,0.03,0.188,0.165,0.188,0.344c0,0.358-0.299,0.86-0.656,1.125s-0.656,0.17-0.656-0.188s0.299-0.86,0.656-1.125
	C61.367,24.398,61.539,24.345,61.656,24.375z M69.375,24.438c0.146,0.015,0.25,0.143,0.25,0.344c0,0.358-0.299,0.86-0.656,1.125
	s-0.656,0.202-0.656-0.156s0.299-0.86,0.656-1.125c0.09-0.066,0.172-0.132,0.25-0.156C69.277,24.45,69.326,24.433,69.375,24.438z
	 M63.531,24.875c0.146,0.015,0.25,0.143,0.25,0.344c0,0.358-0.299,0.86-0.656,1.125s-0.656,0.202-0.656-0.156
	s0.299-0.891,0.656-1.156c0.09-0.066,0.172-0.101,0.25-0.125C63.434,24.888,63.482,24.87,63.531,24.875z M71.312,24.938
	c0.146,0.015,0.25,0.143,0.25,0.344c0,0.358-0.299,0.86-0.656,1.125s-0.656,0.202-0.656-0.156s0.299-0.86,0.656-1.125
	c0.09-0.066,0.172-0.132,0.25-0.156C71.215,24.95,71.264,24.933,71.312,24.938z M65.5,25.375c0.139,0.015,0.219,0.143,0.219,0.344
	c0,0.358-0.299,0.86-0.656,1.125s-0.625,0.202-0.625-0.156s0.268-0.86,0.625-1.125c0.09-0.066,0.203-0.132,0.281-0.156
	C65.402,25.388,65.454,25.37,65.5,25.375z M67.438,25.875c0.139,0.015,0.219,0.143,0.219,0.344c0,0.358-0.268,0.86-0.625,1.125
	s-0.656,0.202-0.656-0.156s0.299-0.86,0.656-1.125c0.09-0.066,0.172-0.132,0.25-0.156C67.34,25.888,67.392,25.87,67.438,25.875z
	 M61.594,26.312c0.146,0.015,0.25,0.143,0.25,0.344c0,0.358-0.299,0.86-0.656,1.125s-0.656,0.202-0.656-0.156
	s0.299-0.891,0.656-1.156c0.09-0.066,0.172-0.101,0.25-0.125C61.496,26.325,61.545,26.308,61.594,26.312z M69.438,26.406
	c0.117,0.03,0.188,0.133,0.188,0.312c0,0.358-0.299,0.86-0.656,1.125s-0.656,0.202-0.656-0.156s0.299-0.86,0.656-1.125
	C69.148,26.43,69.32,26.376,69.438,26.406z M63.531,26.812c0.146,0.015,0.25,0.143,0.25,0.344c0,0.358-0.299,0.86-0.656,1.125
	s-0.656,0.202-0.656-0.156s0.299-0.86,0.656-1.125c0.09-0.066,0.172-0.132,0.25-0.156C63.434,26.825,63.482,26.808,63.531,26.812z
	 M65.5,27.312c0.139,0.015,0.219,0.143,0.219,0.344c0,0.358-0.299,0.86-0.656,1.125s-0.625,0.202-0.625-0.156
	s0.268-0.86,0.625-1.125c0.09-0.066,0.203-0.132,0.281-0.156C65.402,27.325,65.454,27.308,65.5,27.312z M67.469,27.844
	c0.117,0.03,0.188,0.133,0.188,0.312c0,0.358-0.268,0.86-0.625,1.125s-0.656,0.202-0.656-0.156s0.299-0.86,0.656-1.125
	C67.211,27.867,67.352,27.813,67.469,27.844z M61.594,28.25c0.146,0.015,0.25,0.143,0.25,0.344c0,0.358-0.299,0.86-0.656,1.125
	s-0.656,0.202-0.656-0.156s0.299-0.86,0.656-1.125c0.09-0.066,0.172-0.132,0.25-0.156C61.496,28.263,61.545,28.245,61.594,28.25z
	 M63.594,28.781c0.117,0.03,0.188,0.133,0.188,0.312c0,0.358-0.299,0.86-0.656,1.125s-0.656,0.202-0.656-0.156
	s0.299-0.86,0.656-1.125C63.305,28.805,63.477,28.751,63.594,28.781z M65.531,29.281c0.117,0.03,0.188,0.133,0.188,0.312
	c0,0.358-0.299,0.891-0.656,1.156s-0.625,0.17-0.625-0.188s0.268-0.86,0.625-1.125C65.242,29.305,65.414,29.251,65.531,29.281z
	 M61.656,30.219c0.117,0.03,0.188,0.133,0.188,0.312c0,0.358-0.299,0.86-0.656,1.125s-0.656,0.202-0.656-0.156
	s0.299-0.86,0.656-1.125C61.367,30.242,61.539,30.188,61.656,30.219z M20,30.5V90h24.5V30.5H20z M63.594,30.719
	c0.117,0.03,0.188,0.165,0.188,0.344c0,0.358-0.299,0.86-0.656,1.125s-0.656,0.17-0.656-0.188s0.299-0.86,0.656-1.125
	C63.305,30.742,63.477,30.688,63.594,30.719z M61.656,32.156c0.117,0.03,0.188,0.165,0.188,0.344c0,0.358-0.299,0.86-0.656,1.125
	s-0.656,0.17-0.656-0.188s0.299-0.86,0.656-1.125C61.367,32.18,61.539,32.126,61.656,32.156z M23,35h18v3H23V35z M23,39h18v3H23V39z
	 M23,43h18v3H23V43z M23,47h18v3H23V47z M38.5,51c0.078-0.008,0.156,0.016,0.219,0.062c0.011,0.01,0.021,0.02,0.031,0.031
	c0.011,0.01,0.021,0.02,0.031,0.031c0.047,0.062,0.07,0.141,0.062,0.219v1.875c0,0.067-0.022,0.133-0.062,0.188
	c-0.01,0.012-0.02,0.021-0.031,0.031c-0.027,0.026-0.059,0.047-0.094,0.062c-0.102,0.047-0.222,0.034-0.312-0.031
	c-0.011-0.01-0.021-0.02-0.031-0.031c-0.011-0.01-0.021-0.02-0.031-0.031c-0.041-0.055-0.062-0.12-0.062-0.188v-1.875
	c0-0.067,0.022-0.133,0.062-0.188c0.01-0.012,0.02-0.021,0.031-0.031c0.01-0.012,0.02-0.021,0.031-0.031
	c0.037-0.029,0.079-0.051,0.125-0.062C38.479,51.02,38.489,51.01,38.5,51z M37.688,51.875c0.181-0.035,0.356,0.084,0.391,0.266
	s-0.084,0.355-0.266,0.391l0,0c-0.1,0.074-0.208,0.182-0.281,0.281c-0.412,0.561-0.279,1.338,0.281,1.75s1.338,0.279,1.75-0.281
	s0.279-1.338-0.281-1.75c-0.011-0.01-0.021-0.02-0.031-0.031c-0.026-0.027-0.047-0.059-0.062-0.094c-0.035-0.08-0.035-0.17,0-0.25
	c0.015-0.035,0.036-0.066,0.062-0.094c0.01-0.012,0.02-0.021,0.031-0.031c0.045-0.035,0.1-0.057,0.156-0.062
	c0.078-0.008,0.156,0.016,0.219,0.062c0.833,0.613,1.019,1.792,0.406,2.625s-1.792,1.02-2.625,0.406s-1.019-1.792-0.406-2.625
	c0.11-0.15,0.226-0.295,0.375-0.406c0.02-0.013,0.041-0.023,0.062-0.031c0.01-0.012,0.02-0.021,0.031-0.031
	c0.01-0.012,0.02-0.021,0.031-0.031c0.02-0.013,0.041-0.023,0.062-0.031C37.623,51.891,37.655,51.881,37.688,51.875z M25,52
	c0.552,0,1,0.447,1,1s-0.448,1-1,1s-1-0.447-1-1S24.448,52,25,52z M27.938,52c0.552,0,1,0.447,1,1s-0.448,1-1,1s-1-0.447-1-1
	S27.385,52,27.938,52z M21.625,74.5c0.01,0,0.021,0,0.031,0s0.021,0,0.031,0s0.021,0,0.031,0s0.021,0,0.031,0s0.021,0,0.031,0
	c0.021-0.002,0.042-0.002,0.062,0c0.021-0.002,0.042-0.002,0.062,0c0.031-0.003,0.062-0.003,0.094,0h20
	c0.276-0.004,0.503,0.217,0.507,0.493s-0.216,0.503-0.493,0.507c-0.005,0-0.009,0-0.014,0H22c-0.276,0.104-0.584-0.036-0.688-0.312
	S21.349,74.604,21.625,74.5z M21.625,76.5c0.01,0,0.021,0,0.031,0s0.021,0,0.031,0s0.021,0,0.031,0s0.021,0,0.031,0s0.021,0,0.031,0
	c0.021-0.002,0.042-0.002,0.062,0c0.021-0.002,0.042-0.002,0.062,0c0.031-0.003,0.062-0.003,0.094,0h20
	c0.276-0.004,0.503,0.217,0.507,0.493s-0.216,0.503-0.493,0.507c-0.005,0-0.009,0-0.014,0H22c-0.276,0.104-0.584-0.036-0.688-0.312
	S21.349,76.604,21.625,76.5z M21.625,78.5c0.01,0,0.021,0,0.031,0s0.021,0,0.031,0s0.021,0,0.031,0s0.021,0,0.031,0s0.021,0,0.031,0
	c0.021-0.002,0.042-0.002,0.062,0c0.021-0.002,0.042-0.002,0.062,0c0.031-0.003,0.062-0.003,0.094,0h20
	c0.276-0.004,0.503,0.217,0.507,0.493s-0.216,0.503-0.493,0.507c-0.005,0-0.009,0-0.014,0H22c-0.276,0.104-0.584-0.036-0.688-0.312
	S21.349,78.604,21.625,78.5z M21.625,80.5c0.01,0,0.021,0,0.031,0s0.021,0,0.031,0s0.021,0,0.031,0s0.021,0,0.031,0s0.021,0,0.031,0
	c0.021-0.002,0.042-0.002,0.062,0c0.021-0.002,0.042-0.002,0.062,0c0.031-0.003,0.062-0.003,0.094,0h20
	c0.276-0.004,0.503,0.217,0.507,0.493s-0.216,0.503-0.493,0.507c-0.005,0-0.009,0-0.014,0H22c-0.276,0.104-0.584-0.036-0.688-0.312
	S21.349,80.604,21.625,80.5z M21.625,82.5c0.01,0,0.021,0,0.031,0s0.021,0,0.031,0s0.021,0,0.031,0s0.021,0,0.031,0s0.021,0,0.031,0
	c0.021-0.002,0.042-0.002,0.062,0c0.021-0.002,0.042-0.002,0.062,0c0.031-0.003,0.062-0.003,0.094,0h20
	c0.276-0.004,0.503,0.217,0.507,0.493s-0.216,0.503-0.493,0.507c-0.005,0-0.009,0-0.014,0H22c-0.276,0.104-0.584-0.036-0.688-0.312
	S21.349,82.604,21.625,82.5L21.625,82.5z M21.625,84.5c0.01,0,0.021,0,0.031,0s0.021,0,0.031,0s0.021,0,0.031,0s0.021,0,0.031,0
	s0.021,0,0.031,0c0.021-0.002,0.042-0.002,0.062,0c0.021-0.002,0.042-0.002,0.062,0c0.031-0.003,0.062-0.003,0.094,0h20
	c0.276-0.004,0.503,0.217,0.507,0.493s-0.216,0.503-0.493,0.507c-0.005,0-0.009,0-0.014,0H22c-0.276,0.104-0.584-0.036-0.688-0.312
	S21.349,84.604,21.625,84.5z M21.625,86.5c0.01,0,0.021,0,0.031,0s0.021,0,0.031,0s0.021,0,0.031,0s0.021,0,0.031,0s0.021,0,0.031,0
	c0.021-0.002,0.042-0.002,0.062,0c0.021-0.002,0.042-0.002,0.062,0c0.031-0.003,0.062-0.003,0.094,0h20
	c0.064-0.002,0.127,0.009,0.188,0.031c0.011,0.01,0.021,0.021,0.031,0.031c0.021-0.002,0.042-0.002,0.062,0
	c0.052,0.043,0.094,0.096,0.125,0.156c0.011,0.01,0.021,0.021,0.031,0.031c0.012,0.02,0.022,0.041,0.031,0.062
	c0,0.01,0,0.021,0,0.031c0.012,0.02,0.022,0.041,0.031,0.062c0,0.01,0,0.021,0,0.031c0.001,0.021,0.001,0.041,0,0.062
	c0.003,0.031,0.003,0.062,0,0.094c0,0.01,0,0.021,0,0.031c-0.009,0.021-0.02,0.043-0.031,0.062
	c-0.007,0.032-0.018,0.063-0.031,0.094c-0.01,0.011-0.021,0.021-0.031,0.031c-0.057,0.071-0.133,0.125-0.219,0.156
	c-0.06,0.022-0.124,0.033-0.188,0.031H22c-0.276,0.104-0.584-0.036-0.688-0.312S21.349,86.604,21.625,86.5z"/>
</svg>
